<svg width="59" height="58" viewBox="0 0 59 58" fill="none" xmlns="http://www.w3.org/2000/svg">
<circle cx="32" cy="30.9999" r="27" fill="#252525"/>
<path d="M24.2679 21.1544C23.3728 21.1544 22.5143 21.49 21.8814 22.0874C21.2484 22.6848 20.8929 23.495 20.8929 24.3399V37.9918C20.8929 39.7502 22.4049 41.1773 24.2679 41.1773H38.7321C39.6272 41.1773 40.4857 40.8417 41.1186 40.2443C41.7516 39.6469 42.1071 38.8367 42.1071 37.9918V34.3513C42.1071 33.9892 42.2595 33.642 42.5308 33.386C42.8021 33.1299 43.17 32.9861 43.5536 32.9861C43.9372 32.9861 44.3051 33.1299 44.5764 33.386C44.8476 33.642 45 33.9892 45 34.3513V37.9918C45 39.5608 44.3396 41.0655 43.1642 42.175C41.9887 43.2844 40.3945 43.9077 38.7321 43.9077H24.2679C22.6055 43.9077 21.0113 43.2844 19.8358 42.175C18.6604 41.0655 18 39.5608 18 37.9918V24.3399C18 22.7709 18.6604 21.2662 19.8358 20.1567C21.0113 19.0473 22.6055 18.424 24.2679 18.424H28.125C28.5086 18.424 28.8765 18.5678 29.1478 18.8239C29.419 19.0799 29.5714 19.4271 29.5714 19.7892C29.5714 20.1513 29.419 20.4985 29.1478 20.7545C28.8765 21.0106 28.5086 21.1544 28.125 21.1544H24.2679ZM32.4643 19.7892C32.4643 19.4271 32.6167 19.0799 32.8879 18.8239C33.1592 18.5678 33.5271 18.424 33.9107 18.424H43.5536C43.9372 18.424 44.3051 18.5678 44.5764 18.8239C44.8476 19.0799 45 19.4271 45 19.7892V28.8905C45 29.2526 44.8476 29.5998 44.5764 29.8559C44.3051 30.1119 43.9372 30.2557 43.5536 30.2557C43.17 30.2557 42.8021 30.1119 42.5308 29.8559C42.2595 29.5998 42.1071 29.2526 42.1071 28.8905V23.0839L34.9329 29.8552C34.8004 29.9894 34.6408 30.097 34.4633 30.1716C34.2859 30.2462 34.0944 30.2863 33.9002 30.2895C33.7059 30.2928 33.513 30.2591 33.3329 30.1904C33.1528 30.1217 32.9892 30.0195 32.8519 29.8899C32.7145 29.7603 32.6062 29.6058 32.5335 29.4359C32.4607 29.2659 32.425 29.0838 32.4284 28.9005C32.4319 28.7172 32.4744 28.5364 32.5534 28.3689C32.6325 28.2015 32.7465 28.0508 32.8886 27.9258L40.0629 21.1544H33.9107C33.5271 21.1544 33.1592 21.0106 32.8879 20.7545C32.6167 20.4985 32.4643 20.1513 32.4643 19.7892Z" fill="#989898"/>
</svg>
