<svg width="24" height="22" viewBox="0 0 24 22" fill="none" xmlns="http://www.w3.org/2000/svg">
<path d="M13.4813 9.5266L13.5243 9.63324L13.6332 9.67005L18.6206 11.3556C18.9579 11.4696 19.2453 11.6745 19.4465 11.939C19.6475 12.2033 19.7533 12.5149 19.7533 12.8318C19.7533 13.1487 19.6475 13.4603 19.4465 13.7246C19.2453 13.9891 18.9579 14.194 18.6206 14.308L18.6205 14.308L13.6291 15.9973L13.5202 16.0341L13.4773 16.1408L11.6385 20.7126C11.518 21.0121 11.2987 21.2744 11.0061 21.4613C10.7133 21.6484 10.3627 21.75 10.0017 21.75C9.64068 21.75 9.29009 21.6484 8.99728 21.4613C8.70466 21.2744 8.48531 21.0121 8.36484 20.7126L8.36479 20.7124L6.52201 16.137L6.47907 16.0304L6.37016 15.9936L1.38276 14.308C1.04547 14.194 0.75802 13.9891 0.556815 13.7246C0.355879 13.4603 0.25 13.1487 0.25 12.8318C0.25 12.5149 0.355879 12.2033 0.556815 11.939C0.758007 11.6745 1.04543 11.4696 1.3827 11.3556C1.38272 11.3556 1.38274 11.3556 1.38276 11.3556L6.3741 9.67006L6.48316 9.63324L6.52608 9.52643L8.36484 4.95105C8.36485 4.95102 8.36485 4.951 8.36486 4.95098C8.48534 4.65149 8.70468 4.38923 8.99728 4.20226C9.29009 4.01516 9.64068 3.9136 10.0017 3.9136C10.3627 3.9136 10.7133 4.01516 11.0061 4.20226C11.2987 4.38925 11.518 4.65154 11.6385 4.95105L11.6386 4.95115L13.4813 9.5266ZM12.4434 14.5782L12.4435 14.5782L16.9089 13.0686L17.6098 12.8317L16.9089 12.5949L12.4394 11.0854C12.3084 11.0411 12.1911 10.9719 12.0948 10.8837C11.9986 10.7955 11.926 10.6907 11.8804 10.5773L10.2336 6.48031L10.0017 5.90322L9.76971 6.48031L8.12291 10.5773C8.07732 10.6907 8.00471 10.7955 7.90853 10.8837C7.81229 10.9719 7.69493 11.0411 7.56394 11.0854L3.09449 12.5949L2.39322 12.8318L3.09449 13.0687L7.56394 14.5782C7.69493 14.6225 7.81229 14.6917 7.90853 14.7799C8.00471 14.8681 8.07732 14.9729 8.12291 15.0863L9.76971 19.1833L10.0014 19.7597L10.2336 19.1835L11.8844 15.0865L11.8844 15.0863C11.93 14.9729 12.0026 14.8681 12.0988 14.7799C12.1951 14.6917 12.3124 14.6225 12.4434 14.5782ZM15.2011 2.44974H15.4511V2.19974V1.09987C15.4511 0.881836 15.5453 0.66783 15.7214 0.506433C15.8982 0.344368 16.1423 0.25 16.4009 0.25C16.6595 0.25 16.9036 0.344368 17.0804 0.506433C17.2565 0.66783 17.3508 0.881836 17.3508 1.09987V2.19974V2.44974H17.6008H18.8006C19.0592 2.44974 19.3033 2.5441 19.4801 2.70617C19.6562 2.86757 19.7505 3.08157 19.7505 3.29961C19.7505 3.51764 19.6562 3.73164 19.4801 3.89304C19.3033 4.05511 19.0592 4.14947 18.8006 4.14947H17.6008H17.3508V4.39947V5.49934C17.3508 5.71737 17.2565 5.93138 17.0804 6.09278C16.9036 6.25484 16.6595 6.34921 16.4009 6.34921C16.1423 6.34921 15.8982 6.25484 15.7214 6.09278C15.5453 5.93138 15.4511 5.71737 15.4511 5.49934V4.39947V4.14947H15.2011H14.0012C13.7426 4.14947 13.4985 4.05511 13.3217 3.89304C13.1456 3.73164 13.0513 3.51764 13.0513 3.29961C13.0513 3.08157 13.1456 2.86757 13.3217 2.70617C13.4985 2.5441 13.7426 2.44974 14.0012 2.44974H15.2011ZM22.4002 8.54895H22.1502V8.79895V9.16557C22.1502 9.3836 22.0559 9.59761 21.8798 9.75901C21.703 9.92107 21.4589 10.0154 21.2003 10.0154C20.9417 10.0154 20.6976 9.92107 20.5208 9.75901C20.3448 9.59761 20.2505 9.3836 20.2505 9.16557V8.79895V8.54895H20.0005H19.6005C19.3419 8.54895 19.0978 8.45458 18.921 8.29251C18.745 8.13112 18.6507 7.91711 18.6507 7.69908C18.6507 7.48105 18.745 7.26704 18.921 7.10564C19.0978 6.94358 19.3419 6.84921 19.6005 6.84921H20.0005H20.2505V6.59921V6.23259C20.2505 6.01456 20.3448 5.80055 20.5208 5.63915C20.6976 5.47709 20.9417 5.38272 21.2003 5.38272C21.4589 5.38272 21.703 5.47709 21.8798 5.63915C22.0559 5.80055 22.1502 6.01456 22.1502 6.23259V6.59921V6.84921H22.4002H22.8001C23.0587 6.84921 23.3028 6.94358 23.4796 7.10564C23.6557 7.26704 23.75 7.48105 23.75 7.69908C23.75 7.91711 23.6557 8.13112 23.4796 8.29251C23.3028 8.45458 23.0587 8.54895 22.8001 8.54895H22.4002Z" fill="#F2D6FF" stroke="black" stroke-width="0.5"/>
</svg>
