<svg width="32" height="32" viewBox="0 0 32 32" fill="none" xmlns="http://www.w3.org/2000/svg">
<path d="M4.87077 17.2064L4.17193 17.9105C4.35783 18.0948 4.60901 18.1982 4.87077 18.1982C5.13254 18.1982 5.38371 18.0948 5.56962 17.9105L4.87077 17.2064ZM7.79321 15.7055C7.98031 15.5198 8.08598 15.2673 8.08697 15.0037C8.08796 14.7401 7.9842 14.4869 7.7985 14.2998C7.70656 14.2072 7.59726 14.1336 7.47686 14.0832C7.35646 14.0328 7.22731 14.0066 7.09679 14.0061C6.83318 14.0051 6.57997 14.1088 6.39287 14.2945L7.79321 15.7055ZM3.34602 14.2945C3.15807 14.1143 2.90684 14.0152 2.64648 14.0185C2.38613 14.0218 2.13749 14.1273 1.95416 14.3122C1.77083 14.4971 1.66748 14.7466 1.66639 15.007C1.6653 15.2673 1.76656 15.5177 1.94833 15.7041L3.34602 14.2945ZM24.6396 9.78381C24.7061 9.89839 24.7949 9.99849 24.9008 10.0782C25.0066 10.1579 25.1273 10.2156 25.2558 10.248C25.3843 10.2803 25.518 10.2866 25.6489 10.2664C25.7799 10.2463 25.9055 10.2001 26.0183 10.1307C26.1312 10.0612 26.229 9.96988 26.3059 9.86204C26.3829 9.7542 26.4375 9.63203 26.4666 9.50275C26.4956 9.37347 26.4984 9.23969 26.4749 9.10929C26.4515 8.97889 26.4021 8.85451 26.3298 8.74349L24.6396 9.78381ZM22.3591 4.77411C22.248 4.70179 22.1237 4.65243 21.9933 4.62894C21.8629 4.60544 21.7291 4.60829 21.5998 4.63732C21.4705 4.66635 21.3484 4.72096 21.2405 4.79794C21.1327 4.87492 21.0413 4.97271 20.9719 5.08555C20.9024 5.19839 20.8563 5.32399 20.8361 5.45495C20.816 5.58591 20.8223 5.71957 20.8546 5.84807C20.8869 5.97657 20.9446 6.09729 21.0244 6.20312C21.1041 6.30896 21.2042 6.39776 21.3187 6.46431L22.3591 4.77411ZM16.4957 4.97397C16.7562 4.98287 17.0097 4.88895 17.2016 4.71249C17.3934 4.53603 17.5082 4.29119 17.521 4.03085C17.5339 3.77051 17.4438 3.51555 17.2703 3.32104C17.0968 3.12653 16.8537 3.00808 16.5936 2.99126L16.4957 4.97397ZM15.9887 2.97803C9.30869 2.97803 3.8781 8.35304 3.8781 15H5.86345C5.86345 9.46483 10.39 4.96338 15.9887 4.96338V2.97803ZM3.8781 15V17.2064H5.86345V15H3.8781ZM5.57226 17.9118L7.79321 15.7055L6.39287 14.2945L4.16928 16.5009L5.57226 17.9118ZM5.57226 16.5022L3.34602 14.2945L1.94701 15.7041L4.1706 17.9092L5.57226 16.5022ZM26.3311 8.74614C25.3365 7.13006 23.9765 5.77002 22.3604 4.77543L21.3201 6.46563C22.6715 7.29703 23.809 8.43402 24.6409 9.78514L26.3311 8.74614ZM16.5936 2.99126C16.3917 2.98127 16.1896 2.97641 15.9874 2.9767V4.96206C16.1577 4.96206 16.3271 4.96647 16.4957 4.97529L16.5936 2.99126ZM26.8857 14.5592L27.5845 13.8538C27.3987 13.6699 27.1478 13.5668 26.8863 13.5668C26.6249 13.5668 26.374 13.6699 26.1882 13.8538L26.8857 14.5592ZM23.9566 16.0588C23.8639 16.1505 23.7901 16.2596 23.7395 16.3798C23.689 16.5 23.6625 16.629 23.6618 16.7594C23.6603 17.0227 23.7635 17.2759 23.9487 17.4632C24.1338 17.6504 24.3858 17.7565 24.6492 17.758C24.9125 17.7595 25.1657 17.6563 25.353 17.4711L23.9566 16.0588ZM28.421 17.4711C28.5132 17.5652 28.6232 17.64 28.7446 17.6911C28.866 17.7422 28.9963 17.7687 29.128 17.769C29.2597 17.7693 29.3902 17.7433 29.5118 17.6926C29.6334 17.642 29.7437 17.5676 29.8362 17.4739C29.9288 17.3802 30.0018 17.269 30.051 17.1468C30.1001 17.0246 30.1245 16.8939 30.1226 16.7622C30.1207 16.6305 30.0926 16.5004 30.04 16.3797C29.9874 16.2589 29.9113 16.1499 29.816 16.0588L28.421 17.4711ZM7.03878 21.9792C6.90047 21.755 6.67879 21.595 6.42251 21.5343C6.16622 21.4736 5.89633 21.5172 5.67219 21.6556C5.44806 21.7939 5.28805 22.0155 5.22736 22.2718C5.16667 22.5281 5.21027 22.798 5.34858 23.0221L7.03878 21.9792ZM15.2647 26.7917C15.0016 26.7801 14.7447 26.8735 14.5505 27.0513C14.3563 27.2292 14.2406 27.4769 14.2291 27.74C14.2175 28.0031 14.3109 28.26 14.4887 28.4542C14.6666 28.6485 14.9143 28.7641 15.1774 28.7757L15.2647 26.7917ZM9.41458 27.0405C9.64012 27.1763 9.91038 27.217 10.1659 27.1536C10.4215 27.0902 10.6413 26.9279 10.7772 26.7023C10.913 26.4768 10.9537 26.2065 10.8903 25.951C10.8269 25.6954 10.6646 25.4756 10.439 25.3397L9.41458 27.0405ZM15.728 28.7876C22.4279 28.7876 27.8783 23.4166 27.8783 16.7656H25.893C25.893 22.2981 21.3532 26.8022 15.728 26.8022V28.7876ZM27.8783 16.7656V14.5592H25.893V16.7656H27.8783ZM26.1882 13.8538L23.9566 16.0588L25.353 17.4711L27.5845 15.2647L26.1882 13.8538ZM26.1882 15.2647L28.421 17.4711L29.816 16.0588L27.5845 13.8538L26.1882 15.2647ZM15.1761 28.7757C15.3596 28.7836 15.5436 28.7876 15.728 28.7876V26.8022C15.5727 26.8022 15.4183 26.7987 15.2647 26.7917L15.1761 28.7757ZM5.34858 23.0221C6.36584 24.6653 7.75958 26.0427 9.41458 27.0405L10.439 25.3397C9.05471 24.5051 7.89009 23.3533 7.03878 21.9792L5.34858 23.0221Z" fill="white"/>
</svg>
